<svg
  width="24"
  height="24"
  viewBox="0 0 24 24"
  fill="none"
  xmlns="http://www.w3.org/2000/svg"
>
  <!-- Bell body -->
  <path
    fill-rule="evenodd"
    clip-rule="evenodd"
    d="M12 3.25C8.27208 3.25 5.25 6.27208 5.25 10V14.5858L4.03033 15.8055C3.73744 16.0984 3.75 16.5732 4.06066 16.8536C4.34202 17.1077 4.76469 17.1105 5.04919 16.8604L6.25 15.7858V16C6.25 17.7949 7.70507 19.25 9.5 19.25H14.5C16.2949 19.25 17.75 17.7949 17.75 16V15.7858L18.9508 16.8604C19.2353 17.1105 19.658 17.1077 19.9393 16.8536C20.25 16.5732 20.2626 16.0984 19.9697 15.8055L18.75 14.5858V10C18.75 6.27208 15.7279 3.25 12 3.25ZM6.75 10C6.75 6.82436 9.31893 4.25 12 4.25C14.6811 4.25 17.25 6.82436 17.25 10V14.75C17.25 14.9489 17.329 15.1397 17.4697 15.2803L17.75 15.5607V16C17.75 17.2426 16.7426 18.25 15.5 18.25H8.5C7.25736 18.25 6.25 17.2426 6.25 16V15.5607L6.53033 15.2803C6.671 15.1397 6.75 14.9489 6.75 14.75V10Z"
    fill="currentColor"
  />
  
  <!-- Bell clapper -->
  <path
    fill-rule="evenodd"
    clip-rule="evenodd"
    d="M10.75 20.25C10.75 20.6642 11.0858 21 11.5 21H12.5C12.9142 21 13.25 20.6642 13.25 20.25C13.25 19.8358 12.9142 19.5 12.5 19.5H11.5C11.0858 19.5 10.75 19.8358 10.75 20.25Z"
    fill="currentColor"
  />

  <!-- Notification dot (new alert indicator) -->
  <circle cx="17.5" cy="6.5" r="1.75" fill="currentColor" />
</svg>
